<svg xmlns="http://www.w3.org/2000/svg" viewBox="0 0 256 256">
  <!-- Background -->
  <rect width="256" height="256" rx="28" fill="#1A3A6E"/>
  <!-- Paper/document -->
  <rect x="52" y="38" width="152" height="180" rx="8" fill="#FFFFFF"/>
  <rect x="52" y="38" width="152" height="180" rx="8" fill="none" stroke="#E8E0F0" stroke-width="2"/>
  <!-- Header band -->
  <rect x="52" y="38" width="152" height="42" rx="8" fill="#C0511A"/>
  <rect x="52" y="62" width="152" height="18" fill="#C0511A"/>
  <!-- Title text simulation -->
  <rect x="76" y="50" width="88" height="7" rx="2" fill="#FFFFFF" opacity="0.9"/>
  <rect x="76" y="62" width="52" height="5" rx="2" fill="#FFFFFF" opacity="0.6"/>
  <!-- Number box -->
  <rect x="160" y="44" width="36" height="28" rx="3" fill="none" stroke="#FFFFFF" stroke-width="1.5" opacity="0.8"/>
  <rect x="162" y="44" width="34" height="10" rx="2" fill="#FFFFFF" opacity="0.15"/>
  <!-- Data rows -->
  <rect x="64" y="94" width="128" height="6" rx="1" fill="#F0E8E0"/>
  <rect x="64" y="104" width="128" height="6" rx="1" fill="#FAF8F5"/>
  <rect x="64" y="114" width="128" height="6" rx="1" fill="#F0E8E0"/>
  <rect x="64" y="124" width="128" height="6" rx="1" fill="#FAF8F5"/>
  <!-- Highlighted row -->
  <rect x="64" y="134" width="128" height="7" rx="1" fill="#E8621A"/>
  <rect x="64" y="145" width="128" height="6" rx="1" fill="#F0E8E0"/>
  <rect x="64" y="155" width="128" height="6" rx="1" fill="#FAF8F5"/>
  <rect x="64" y="165" width="128" height="6" rx="1" fill="#F0E8E0"/>
  <!-- Totals area -->
  <rect x="136" y="182" width="56" height="28" rx="2" fill="#F5F0E8" stroke="#C0511A" stroke-width="1"/>
  <rect x="136" y="182" width="56" height="7" rx="2" fill="#C0511A" opacity="0.15"/>
  <rect x="138" y="185" width="36" height="3" rx="1" fill="#888" opacity="0.4"/>
  <rect x="180" y="185" width="10" height="3" rx="1" fill="#333" opacity="0.5"/>
  <rect x="138" y="191" width="36" height="3" rx="1" fill="#888" opacity="0.4"/>
  <rect x="180" y="191" width="10" height="3" rx="1" fill="#333" opacity="0.5"/>
  <rect x="138" y="198" width="36" height="4" rx="1" fill="#C0511A" opacity="0.3"/>
  <rect x="180" y="198" width="10" height="4" rx="1" fill="#C0511A" opacity="0.6"/>
  <!-- Bottom accent -->
  <rect x="52" y="194" width="152" height="24" rx="0" fill="none"/>
  <rect x="52" y="212" width="152" height="6" rx="0 0 8 8" fill="#1A3A6E" opacity="0.07"/>
</svg>
